<svg width="65" height="42" viewBox="0 0 65 42" fill="none" xmlns="http://www.w3.org/2000/svg">
<path d="M4.9144 14.556H13.6744V17.916H0.594404V1.11601H4.9144V14.556ZM26.16 5.67601C26.16 4.71601 25.68 4.23601 24.72 4.23601H20.64C19.68 4.23601 19.2 4.71601 19.2 5.67601V13.356C19.2 14.316 19.68 14.796 20.64 14.796H24.72C25.68 14.796 26.16 14.316 26.16 13.356V5.67601ZM30.48 13.356C30.48 15.036 30.096 16.26 29.328 17.028C28.576 17.78 27.36 18.156 25.68 18.156H19.68C18 18.156 16.776 17.78 16.008 17.028C15.256 16.26 14.88 15.036 14.88 13.356V5.67601C14.88 3.99602 15.256 2.78001 16.008 2.02801C16.776 1.26001 18 0.876015 19.68 0.876015H25.68C27.36 0.876015 28.576 1.26001 29.328 2.02801C30.096 2.78001 30.48 3.99602 30.48 5.67601V13.356ZM47.2913 17.556C43.5473 17.956 40.1073 18.156 36.9713 18.156C35.4033 18.156 34.2513 17.788 33.5153 17.052C32.7793 16.316 32.4113 15.164 32.4113 13.596V5.91602C32.4113 4.23602 32.7873 3.02002 33.5393 2.26802C34.3073 1.50001 35.5313 1.11601 37.2113 1.11601H45.8513V4.47602H38.1713C37.2113 4.47602 36.7313 4.95602 36.7313 5.91602V13.596C36.7313 13.964 36.8353 14.26 37.0433 14.484C37.2673 14.692 37.5633 14.796 37.9313 14.796C39.7713 14.796 41.4513 14.756 42.9713 14.676V11.196H39.8513V8.31602H47.2913V17.556ZM60.496 5.67601C60.496 4.71601 60.016 4.23601 59.056 4.23601H54.976C54.016 4.23601 53.536 4.71601 53.536 5.67601V13.356C53.536 14.316 54.016 14.796 54.976 14.796H59.056C60.016 14.796 60.496 14.316 60.496 13.356V5.67601ZM64.816 13.356C64.816 15.036 64.432 16.26 63.664 17.028C62.912 17.78 61.696 18.156 60.016 18.156H54.016C52.336 18.156 51.112 17.78 50.344 17.028C49.592 16.26 49.216 15.036 49.216 13.356V5.67601C49.216 3.99602 49.592 2.78001 50.344 2.02801C51.112 1.26001 52.336 0.876015 54.016 0.876015H60.016C61.696 0.876015 62.912 1.26001 63.664 2.02801C64.432 2.78001 64.816 3.99602 64.816 5.67601V13.356ZM15.9141 41.916H11.5941V35.076H5.59409V41.916H1.27409V25.116H5.59409V31.716H11.5941V25.116H15.9141V41.916ZM32.1253 41.916H18.8053V25.116H32.1253V28.476H23.1253V31.716H30.2053V35.076H23.1253V38.556H32.1253V41.916ZM34.0397 25.116H44.1197C45.7997 25.116 47.0157 25.5 47.7677 26.268C48.5357 27.02 48.9197 28.236 48.9197 29.916V32.076C48.9197 33.404 48.6957 34.436 48.2477 35.172C47.8157 35.908 47.1197 36.396 46.1597 36.636L49.1597 41.916H44.4797L41.7197 36.876H38.3597V41.916H34.0397V25.116ZM44.5997 29.916C44.5997 28.956 44.1197 28.476 43.1597 28.476H38.3597V33.516H43.1597C44.1197 33.516 44.5997 33.036 44.5997 32.076V29.916ZM64.6332 41.916H51.3132V25.116H64.6332V28.476H55.6332V31.716H62.7132V35.076H55.6332V38.556H64.6332V41.916Z" fill="white"/>
</svg>
