<svg width="140" height="141" viewBox="0 0 140 141" fill="none" xmlns="http://www.w3.org/2000/svg">
<circle cx="69.7261" cy="70.3726" r="69.6445" fill="white"/>
<path d="M61.6088 69.0692L60.7034 62.9405L65.9268 62.1744C71.9626 61.2458 74.9806 58.6922 74.9806 54.5135C74.9806 52.6099 74.3538 51.3331 73.1002 50.683C71.893 50.033 70.2215 49.708 68.0858 49.708C65.95 49.708 62.5606 50.7295 57.9177 52.7724L55.5497 46.783C57.4069 45.9008 59.6356 45.0883 62.2356 44.3454C64.8357 43.5561 66.9482 43.1614 68.5733 43.1614C72.6591 43.1614 75.9788 44.0204 78.5324 45.7383C81.1325 47.4562 82.4325 50.2652 82.4325 54.1653C82.4325 57.1832 81.7825 59.3654 80.4825 60.7119C79.7396 61.5012 79.0664 62.0815 78.4628 62.453C77.9056 62.8244 76.977 63.4048 75.677 64.1941V64.4727C81.3879 65.8656 84.2433 69.6264 84.2433 75.7551C84.2433 84.3446 78.9735 88.6393 68.434 88.6393C64.2089 88.6393 59.6123 87.6411 54.6444 85.6446L56.873 79.4462C61.4231 81.2106 65.2768 82.0927 68.434 82.0927C73.9127 82.0927 76.652 80.073 76.652 76.0337C76.652 70.7871 74.0984 68.1638 68.9911 68.1638L61.6088 69.0692Z" fill="#0A0D18"/>
</svg>
