<svg width="47" height="38" viewBox="0 0 47 38" fill="none" xmlns="http://www.w3.org/2000/svg">
<path fill-rule="evenodd" clip-rule="evenodd" d="M29.7479 0.80135C27.2134 1.73803 25.4319 3.38931 24.2161 5.9281C23.5169 7.38864 23.4831 7.55971 23.4763 9.68691L23.4692 11.9157L22.2399 11.7809C16.0437 11.1014 10.8779 8.66644 6.24178 4.24015C5.07524 3.12646 4.02833 2.27214 3.91545 2.342C3.49771 2.60014 2.8794 5.15942 2.8794 6.63C2.8794 9.44783 3.8716 11.8358 5.79004 13.6348L6.75438 14.5391L6.09735 14.5324C5.52432 14.5266 4.22419 14.1415 3.01462 13.6195C2.66449 13.4685 2.6481 13.5424 2.78229 14.6639C3.18774 18.0509 5.68023 21.2602 8.76828 22.3716C10.3097 22.9262 10.0639 23.1084 7.74514 23.1295C6.61814 23.1397 6.15799 23.2182 6.15922 23.3999C6.16332 23.9297 7.47656 25.9213 8.44192 26.8617C9.66522 28.0532 12.0268 29.2546 13.4816 29.4256C14.0731 29.4951 14.5572 29.6217 14.5572 29.7069C14.5572 29.7922 14.1192 30.1402 13.584 30.4803C10.4042 32.5012 7.59969 33.3756 3.6989 33.5622L0.933105 33.6948L3.11214 34.7747C7.64312 37.0199 10.1172 37.5823 15.4791 37.5851C19.6749 37.5876 21.2131 37.369 24.328 36.328C31.9767 33.7718 38.2147 27.3624 40.8474 19.3537C41.6841 16.8087 42.0035 15.166 42.2231 12.2794L42.4259 9.61541L43.9733 8.14545C45.5588 6.63942 46.8379 5.16228 46.6871 5.01129C46.6404 4.96479 45.9149 5.1418 45.0745 5.40485C44.2343 5.66771 43.178 5.949 42.7273 6.02972L41.9078 6.17661L43.2622 4.77343C44.508 3.48253 45.9481 1.22236 45.5248 1.22236C45.4259 1.22236 44.7559 1.4887 44.036 1.81424C42.2913 2.60342 39.9779 3.30367 39.6851 3.13158C39.5554 3.05516 39.0742 2.68905 38.6155 2.31803C38.157 1.9468 37.235 1.38975 36.5667 1.07998C35.5145 0.592174 35.0501 0.508586 33.0982 0.456343C31.2546 0.406969 30.6453 0.46966 29.7479 0.80135Z" fill="white"/>
</svg>
