<svg width="29" height="25" viewBox="0 0 29 25" fill="none" xmlns="http://www.w3.org/2000/svg">
<path fill-rule="evenodd" clip-rule="evenodd" d="M14.3088 5.03336C7.15788 7.79554 1.15244 10.1511 0.963426 10.268C0.574431 10.5085 0.28125 10.8942 0.28125 11.1655C0.28125 11.2726 0.382357 11.4494 0.525592 11.5927C0.722662 11.7897 0.978562 11.903 1.84908 12.1786C2.4426 12.3664 4.02848 12.8697 5.3733 13.2969L7.81836 14.0738L15.3647 9.30178C19.5152 6.67717 23.0235 4.48167 23.1609 4.42299C23.2984 4.36423 23.5165 4.32643 23.6456 4.33895C24.2277 4.39547 24.2257 4.39756 17.7311 10.2485C14.0896 13.5291 11.5248 15.8928 11.5062 15.9854C11.4719 16.1552 11.0908 22.0484 11.0921 22.3873C11.093 22.6386 11.221 22.6494 11.6881 22.4375C11.9067 22.3384 12.4228 21.894 13.1794 21.1538C13.8157 20.5311 14.6101 19.7566 14.9446 19.4327L15.553 18.8438L18.8585 21.289C20.6766 22.6338 22.2985 23.7953 22.463 23.87C22.8704 24.055 23.4963 24.0512 23.8028 23.8618C24.2596 23.5795 24.3858 23.2023 25.0252 20.2064C28.5395 3.742 28.9287 1.84333 28.9009 1.29463C28.8707 0.69529 28.7498 0.461685 28.3176 0.167609C27.7831 -0.196183 28.4229 -0.418454 14.3088 5.03336Z" fill="white"/>
</svg>
