<svg width="41" height="24" viewBox="0 0 41 24" fill="none" xmlns="http://www.w3.org/2000/svg">
<path d="M35.0623 23.0115C36.4494 24.3578 38.6652 24.3247 40.0115 22.9377C41.3578 21.5506 41.3247 19.3348 39.9377 17.9885L35.0623 23.0115ZM20.5 4L22.9377 1.48847C21.5652 0.156367 19.3776 0.172692 18.0251 1.52512L20.5 4ZM1.52513 18.0251C0.158291 19.392 0.158291 21.608 1.52513 22.9749C2.89196 24.3417 5.10804 24.3417 6.47487 22.9749L1.52513 18.0251ZM39.9377 17.9885L22.9377 1.48847L18.0623 6.51153L35.0623 23.0115L39.9377 17.9885ZM18.0251 1.52512L1.52513 18.0251L6.47487 22.9749L22.9749 6.47487L18.0251 1.52512Z" fill="#212224"/>
</svg>
