<svg width="33" height="25" viewBox="0 0 33 25" fill="none" xmlns="http://www.w3.org/2000/svg">
<path fill-rule="evenodd" clip-rule="evenodd" d="M9.04042 0.315201C6.80947 0.97952 5.35577 1.63008 4.79061 2.21709C4.03577 3.00135 3.26028 4.42996 2.15763 7.06834C0.724429 10.4977 0.428427 11.627 0.138226 14.7725C-0.171132 18.1275 0.0263824 19.7148 0.856376 20.5412C1.76718 21.4478 5.597 23.4792 7.19384 23.9026C7.78005 24.0578 7.88987 24.0487 8.32294 23.8083C8.61018 23.6488 8.99225 23.2331 9.27503 22.7725C9.89618 21.7605 9.82522 21.4439 8.86948 20.9624C7.64554 20.3458 7.42145 20.1374 7.42145 19.6161C7.42145 18.9689 7.72406 18.8951 8.3417 19.3914C9.88323 20.6302 12.2825 21.1757 16.1909 21.1757C20.0992 21.1757 22.4985 20.6302 24.0401 19.3914C24.6577 18.8951 24.9603 18.9689 24.9603 19.6161C24.9603 20.1374 24.7362 20.3458 23.5123 20.9624C22.5565 21.4439 22.4856 21.7605 23.1067 22.7725C23.3895 23.2331 23.7716 23.6488 24.0588 23.8083C24.4919 24.0487 24.6017 24.0578 25.1879 23.9026C26.7865 23.4787 30.6148 21.4475 31.5274 20.539C32.2622 19.8076 32.4354 18.9319 32.3345 16.4589C32.1839 12.77 31.8141 10.9551 30.6053 7.97186C28.856 3.65447 27.9545 2.20103 26.6176 1.54252C25.5607 1.02188 23.0248 0.15978 22.2301 0.0507693C21.3634 -0.0680903 20.7363 0.26137 20.3636 1.03106C20.1064 1.56262 20.0307 1.62455 19.7169 1.5606C17.3096 1.07045 15.0722 1.07045 12.6649 1.5606C12.3511 1.62455 12.2754 1.56262 12.0181 1.03106C11.702 0.377936 11.1092 -0.00602967 10.4366 0.00665229C10.2252 0.0105648 9.59694 0.149392 9.04042 0.315201ZM11.845 10.4404C13.6689 11.3836 14.0727 14.1072 12.604 15.5608C12.0039 16.1547 11.4735 16.3772 10.6452 16.3823C8.4414 16.3959 7.0561 13.7954 8.17346 11.7425C8.93923 10.3354 10.5424 9.7669 11.845 10.4404ZM23.1921 10.6256C25.0861 11.8053 25.0564 14.7899 23.1388 15.9844C21.2194 17.1803 18.8951 15.7037 18.8951 13.2884C18.8951 10.8327 21.2158 9.39467 23.1921 10.6256Z" fill="white"/>
</svg>
