<svg width="51" height="38" viewBox="0 0 51 38" fill="none" xmlns="http://www.w3.org/2000/svg">
<path fill-rule="evenodd" clip-rule="evenodd" d="M14.1157 0.919406C10.663 1.94754 8.41316 2.95438 7.53849 3.86287C6.37025 5.07664 5.17006 7.28763 3.46353 11.3709C1.24544 16.6785 0.787326 18.4261 0.338195 23.2943C-0.140586 28.4868 0.165099 30.9433 1.44964 32.2222C2.85926 33.6254 8.7865 36.7693 11.2579 37.4245C12.1651 37.6649 12.3351 37.6507 13.0053 37.2786C13.4499 37.0318 14.0412 36.3884 14.4788 35.6756C15.4402 34.1094 15.3303 33.6193 13.8512 32.8741C11.9569 31.9199 11.6101 31.5973 11.6101 30.7905C11.6101 29.7889 12.0785 29.6747 13.0343 30.4428C15.4201 32.36 19.1334 33.2042 25.1822 33.2042C31.2309 33.2042 34.9443 32.36 37.33 30.4428C38.2859 29.6747 38.7543 29.7889 38.7543 30.7905C38.7543 31.5973 38.4074 31.9199 36.5132 32.8741C35.034 33.6193 34.9242 34.1094 35.8855 35.6756C36.3232 36.3884 36.9145 37.0318 37.359 37.2786C38.0293 37.6507 38.1993 37.6649 39.1065 37.4245C41.5806 36.7685 47.5055 33.625 48.9179 32.2189C50.055 31.087 50.3231 29.7317 50.1669 25.9043C49.9339 20.1951 49.3616 17.3863 47.4907 12.7693C44.7834 6.08744 43.3882 3.83803 41.3192 2.81887C39.6834 2.01311 35.7588 0.678867 34.5287 0.510156C33.1874 0.326202 32.2169 0.836094 31.6402 2.0273C31.242 2.84998 31.1249 2.94582 30.6392 2.84685C26.9136 2.08827 23.4508 2.08827 19.7252 2.84685C19.2395 2.94582 19.1224 2.84998 18.7242 2.0273C18.235 1.0165 17.3175 0.42225 16.2766 0.441878C15.9494 0.447933 14.977 0.662789 14.1157 0.919406ZM18.4563 16.5897C21.2791 18.0494 21.904 22.2647 19.631 24.5143C18.7023 25.4335 17.8812 25.7778 16.5994 25.7857C13.1886 25.8068 11.0447 21.7822 12.774 18.6049C13.9591 16.4273 16.4403 15.5474 18.4563 16.5897ZM36.0177 16.8764C38.9489 18.7022 38.9029 23.3213 35.9352 25.17C32.9646 27.0208 29.3674 24.7355 29.3674 20.9975C29.3674 17.1969 32.959 14.9713 36.0177 16.8764Z" fill="white"/>
</svg>
