<svg width="25" height="25" viewBox="0 0 25 25" fill="none" xmlns="http://www.w3.org/2000/svg">
<path fill-rule="evenodd" clip-rule="evenodd" d="M5.99446 0.0312519C3.46355 0.388358 1.29306 2.29014 0.51306 4.83423C0.330811 5.42844 0.315918 5.97133 0.315918 12.0128C0.315918 18.0542 0.330811 18.5971 0.51306 19.1913C1.20124 21.4357 2.89291 23.1274 5.13733 23.8156C5.73154 23.9978 6.27443 24.0127 12.3159 24.0127C19.6222 24.0127 19.3284 24.0396 20.8873 23.228C21.8823 22.71 23.0131 21.5792 23.5311 20.5842C24.3427 19.0253 24.3158 19.3191 24.3158 12.0128C24.3158 5.97133 24.3009 5.42844 24.1187 4.83423C23.4384 2.61574 21.7944 0.954069 19.548 0.214465C19.0087 0.0369305 18.4219 0.0189305 12.6373 0.00318061C9.16052 -0.00635506 6.17125 0.00628774 5.99446 0.0312519ZM19.0328 2.31392C20.3285 2.7142 21.4105 3.71449 21.9326 4.99494C22.1724 5.58294 22.173 5.5988 22.173 12.0128C22.173 18.4267 22.1724 18.4426 21.9326 19.0306C21.4105 20.3111 20.3285 21.3113 19.0328 21.7116C18.3839 21.912 18.0212 21.9234 12.3159 21.9234C6.61053 21.9234 6.24786 21.912 5.59889 21.7116C4.30322 21.3113 3.22119 20.3111 2.69909 19.0306C2.4593 18.4426 2.45877 18.4267 2.45877 12.0128C2.45877 5.5988 2.4593 5.58294 2.69909 4.99494C3.2138 3.7327 4.29669 2.72053 5.56182 2.31928C6.16654 2.12749 6.60485 2.11378 12.2778 2.1081C18.0306 2.10242 18.3826 2.11314 19.0328 2.31392ZM17.9729 4.24066C17.5339 4.5082 17.2635 5.03169 17.2628 5.61508C17.2616 6.68244 18.4969 7.44368 19.4387 6.95586C20.5075 6.40237 20.6095 4.86787 19.6183 4.25534C19.1519 3.96702 18.432 3.96059 17.9729 4.24066ZM10.7623 6.02169C9.66398 6.3114 8.83127 6.8004 7.96556 7.66429C6.71221 8.91486 6.15518 10.2527 6.15518 12.0128C6.15518 13.0741 6.3145 13.7812 6.7706 14.7449C7.5146 16.3169 9.27206 17.7075 10.9551 18.0559C11.6823 18.2065 12.9494 18.2065 13.6767 18.0559C15.8666 17.6026 17.9057 15.5635 18.359 13.3736C18.5096 12.6463 18.5096 11.3792 18.359 10.652C17.9126 8.49518 16.0396 6.58172 13.8201 6.01515C13.0265 5.81255 11.543 5.81566 10.7623 6.02169ZM13.5864 8.16925C15.8949 8.87468 17.0435 11.6281 15.947 13.828C14.7217 16.2867 11.3557 16.824 9.44081 14.8667C7.86667 13.2578 7.8761 10.689 9.46191 9.13771C10.5864 8.03768 12.0393 7.69643 13.5864 8.16925Z" fill="white"/>
</svg>
