<svg width="163" height="88" viewBox="0 0 163 88" fill="none" xmlns="http://www.w3.org/2000/svg">
<g clip-path="url(#clip0_177_327)">
<path d="M24.6729 35.9167C25.0822 36.5743 25.6279 37.0051 26.2874 37.2091C26.9468 37.4132 27.6518 37.5039 28.4022 37.5266C29.1071 37.5719 29.7666 37.6626 30.4033 37.8213C31.0173 37.9801 31.5403 38.3202 31.9269 38.887C32.3135 39.4312 32.5181 40.3382 32.5181 41.5625C32.5181 42.7869 32.3135 43.6939 31.9042 44.3288C31.4948 44.941 30.7899 45.3718 29.8121 45.5985C28.8343 45.8253 27.4926 45.9386 25.7871 45.9386C25.1959 45.9386 24.5364 45.9386 23.8542 45.916C23.6723 45.916 23.0356 45.916 21.9668 45.916C20.898 45.916 19.6928 45.916 18.3511 45.8933H13.0073C8.84584 45.8933 5.88965 45.2811 4.07045 44.0567C2.274 42.8323 1.137 40.7916 0.704939 37.9801C0.272879 35.1685 0.0454799 31.4726 0.0454799 26.9378C0.0454799 26.5524 0.0454799 26.1443 0.0454799 25.7361C0 23.5821 0 21.6095 0 19.8409C0 16.2357 0.0682199 13.2881 0.20466 10.9527C0.341099 8.63995 0.613979 6.80336 1.0233 5.4656C1.43262 4.12783 2.02386 3.13018 2.81975 2.51798C3.61565 1.90579 4.66169 1.52033 5.95787 1.36161C7.25405 1.20289 8.86858 1.13487 10.8242 1.13487C11.6656 1.13487 12.6434 1.15754 13.7122 1.20289C14.8037 1.24824 15.8952 1.40696 17.0095 1.65637C18.1237 1.90579 19.147 2.33659 20.0794 2.90344C21.0117 3.47029 21.7621 4.26388 22.3534 5.28421C22.9446 6.30453 23.2175 7.61962 23.2175 9.2068C23.172 11.2021 23.1038 13.3335 22.9674 15.6235C22.8082 18.4578 22.7172 21.2694 22.7172 24.0356C22.7172 26.3937 22.8537 28.6157 23.1265 30.679C23.3994 32.7651 23.9224 34.5109 24.6729 35.9167ZM50.6191 0.5H51.3013C57.4411 0.681392 62.1028 2.63135 65.2864 6.32721C68.47 10.0231 70.1755 15.0794 70.4484 21.4734C70.4711 21.9722 70.4711 22.4711 70.4711 22.9699C70.4711 27.7541 69.607 31.8808 67.8788 35.3499C66.1505 38.819 63.8311 41.5172 60.9658 43.3991C58.1006 45.2811 54.8943 46.2334 51.3923 46.2787C49.0501 46.2787 46.7306 45.8933 44.4566 45.1224C42.1826 44.3514 40.136 43.1271 38.3168 41.4719C36.4976 39.8167 35.0423 37.6853 33.9508 35.0551C32.8592 32.4476 32.3135 29.2959 32.3135 25.6454C32.3135 25.0559 32.3362 24.421 32.3817 23.7862C32.4954 21.3147 32.8365 18.7299 33.4505 16.0543C34.0645 13.3788 35.0423 10.8847 36.3839 8.54926C37.7256 6.21384 39.5448 4.30923 41.8643 2.83542C44.2065 1.36161 47.1172 0.590696 50.6191 0.5ZM56.2587 13.5375C56.2359 12.6532 56.054 11.8143 55.7356 10.998C55.3945 10.2045 54.917 9.54691 54.2348 9.02541C53.5753 8.50391 52.7112 8.2545 51.6879 8.2545C50.6646 8.2545 49.9142 8.57193 49.3912 9.2068C48.8909 9.84167 48.5498 10.5672 48.3906 11.4062C48.2314 12.2224 48.1405 12.948 48.1405 13.5149V13.991C48.186 14.7619 48.3451 15.5102 48.6635 16.2584C48.9819 17.0066 49.4139 17.6188 50.0279 18.1403C50.6419 18.6618 51.3923 18.8659 52.3929 18.8659H52.5748C53.8482 18.7525 54.7578 18.2084 55.3718 17.1654C55.9858 16.1224 56.2587 15.0113 56.2587 13.7869V13.5375ZM111.039 1.15754C112.495 1.38428 113.541 1.88311 114.223 2.63135C114.882 3.37959 115.223 4.19586 115.223 5.03479C115.223 5.91908 114.905 6.71267 114.268 7.41556C113.632 8.11845 112.745 8.48124 111.608 8.48124C108.242 8.50391 105.468 8.66263 103.262 8.95739C102.239 9.07076 101.193 9.38819 100.079 9.9097C98.987 10.4085 98.0774 11.2475 97.3725 12.3812C96.713 13.6056 96.2355 15.2608 95.9626 17.3694C95.6897 19.4781 95.5533 21.7002 95.5533 24.0356C95.5533 27.7088 95.8034 31.0192 96.3037 33.9441C96.4402 34.647 96.7812 35.1685 97.2815 35.4859C97.7818 35.8034 98.3731 35.9621 99.0098 35.9621C99.7147 35.9621 100.374 35.7807 101.011 35.4179C101.625 35.0551 102.011 34.5563 102.171 33.9441C102.353 32.8784 102.444 31.8127 102.444 30.7471C102.444 29.3866 102.353 28.0035 102.171 26.6204C102.08 26.0762 101.875 25.6228 101.511 25.2146C101.147 24.8065 100.761 24.4437 100.329 24.1036C99.7602 23.6955 99.2827 23.2193 98.8961 22.6978C98.5777 22.131 98.4185 21.5188 98.4185 20.8385C98.4185 20.045 98.5322 19.3194 98.7824 18.6392C98.987 18.0496 99.3054 17.4601 99.692 16.8933C100.101 16.3264 100.602 15.9183 101.193 15.6462C102.262 15.1927 103.603 14.8753 105.218 14.6712C106.81 14.4672 108.424 14.3765 110.016 14.3765C112.335 14.3765 114.268 14.5579 115.769 14.898C118.543 15.7142 120.203 17.5962 120.726 20.4758C120.954 22.199 121.068 24.2396 121.068 26.5977C121.068 28.6384 120.999 30.7017 120.863 32.765C120.726 34.8284 120.567 36.5516 120.34 37.9574C119.976 40.2928 118.907 42.0387 117.088 43.1497C115.269 44.2834 112.676 45.077 109.311 45.5532C107.878 45.7572 106.014 45.916 103.717 46.0066C101.42 46.0973 99.0325 46.1427 96.5993 46.1427C93.6431 46.1427 90.9371 46.0973 88.4584 45.984C85.9798 45.8706 84.3198 45.7346 83.4556 45.5532C81.1816 45.009 79.4534 44.3288 78.2937 43.5125C77.1339 42.6736 76.338 41.7666 75.8605 40.7236C75.383 39.7033 75.0419 38.6376 74.8372 37.5039C74.7008 36.7783 74.5416 35.0098 74.3824 32.1755C74.2232 29.3413 74.155 26.3256 74.155 23.0606C74.155 20.7252 74.2005 18.5031 74.3369 16.3944C74.4506 14.2858 74.6553 12.6079 74.9509 11.3608C75.3375 9.18413 76.1106 7.23417 77.2476 5.48827C78.3846 3.74238 80.4767 2.40461 83.5466 1.49765C84.9792 1.13487 86.9121 0.862783 89.3453 0.704066C91.7785 0.545348 94.3026 0.5 96.9632 0.5C99.8966 0.5 102.648 0.568022 105.241 0.681392C107.833 0.817436 109.766 0.976153 111.039 1.15754ZM142.921 0.5H143.603C149.743 0.681392 154.404 2.63135 157.588 6.32721C160.771 10.0231 162.477 15.0794 162.75 21.4734C162.773 21.9722 162.773 22.4711 162.773 22.9699C162.773 27.7541 161.908 31.8808 160.18 35.3499C158.452 38.819 156.133 41.5172 153.267 43.3991C150.402 45.2811 147.196 46.2334 143.694 46.2787C141.352 46.2787 139.032 45.8933 136.758 45.1224C134.484 44.3514 132.438 43.1271 130.618 41.4719C128.799 39.8167 127.344 37.6853 126.252 35.0551C125.161 32.4476 124.615 29.2959 124.615 25.6454C124.615 25.0559 124.638 24.421 124.683 23.7862C124.797 21.3147 125.138 18.7299 125.752 16.0543C126.366 13.3788 127.344 10.8847 128.685 8.54926C130.027 6.21384 131.846 4.30923 134.166 2.83542C136.485 1.36161 139.396 0.590696 142.921 0.5ZM148.537 13.5375C148.515 12.6532 148.333 11.8143 148.014 10.998C147.673 10.2045 147.196 9.54691 146.514 9.02541C145.854 8.50391 144.99 8.2545 143.967 8.2545C142.943 8.2545 142.193 8.57193 141.67 9.2068C141.17 9.84167 140.829 10.5672 140.669 11.4062C140.51 12.2224 140.419 12.948 140.419 13.5149V13.991C140.465 14.7619 140.624 15.5102 140.942 16.2584C141.261 17.0066 141.693 17.6188 142.307 18.1403C142.921 18.6618 143.717 18.9113 144.694 18.9113H144.876C146.15 18.7979 147.059 18.2537 147.673 17.2107C148.287 16.1677 148.56 15.0567 148.56 13.8323V13.5375H148.537ZM8.20912 48.2287C8.95954 48.1153 9.77818 48.07 10.6878 48.07C11.8703 48.07 13.0527 48.138 14.2125 48.2514C15.3722 48.3874 16.2818 48.5235 16.9185 48.6822C18.8969 49.249 20.6706 50.36 22.2397 51.9926C23.8087 53.6478 25.1504 55.4163 26.2647 57.3436C27.3789 59.2709 28.5159 61.6517 29.7211 64.5313C29.4255 61.9011 29.2891 59.7471 29.2891 58.0012C29.2891 56.3006 29.4255 54.6228 29.7211 52.9676C29.994 51.3124 30.5398 50.0426 31.3584 49.1583C31.7677 48.7502 32.3135 48.4554 33.0184 48.2514C33.7234 48.0473 34.451 47.9339 35.2015 47.9339C35.9746 47.9339 36.6568 48.0473 37.2935 48.2967C37.9302 48.5461 38.3396 48.9089 38.567 49.4077C38.8853 50.292 39.1355 51.6751 39.2946 53.5798C39.4538 55.4844 39.522 57.6384 39.522 60.0418C39.522 63.8737 39.3401 67.7283 38.999 71.6736C38.6579 75.6188 38.1804 78.4531 37.6119 80.2217C37.1343 81.5368 36.4294 82.8292 35.4743 84.1216C34.5193 85.414 33.4732 86.2756 32.2907 86.7291C31.1083 87.0919 29.4482 87.2733 27.3334 87.2733C26.0827 87.2733 24.8548 87.1826 23.6496 86.9785C22.4443 86.7971 21.4438 86.4797 20.6706 86.0262C19.3972 85.2099 18.192 84.1443 17.0777 82.8065C15.9634 81.4687 14.9856 80.131 14.1215 78.7478C13.2574 77.3647 12.3478 75.7322 11.3927 73.7822C11.279 75.3921 11.1653 76.7979 11.0289 77.9543C10.8924 79.1106 10.7333 80.2897 10.5286 81.4461C10.3239 82.6024 10.0738 83.5774 9.77818 84.371C9.3916 85.2553 8.80036 85.9355 7.98172 86.4117C7.16309 86.8651 6.29897 87.1145 5.38937 87.1145C4.50251 87.1145 3.66113 86.8651 2.88797 86.389C2.11482 85.9128 1.5918 85.1646 1.31892 84.1896C0.977818 82.8065 0.704939 80.9699 0.523019 78.6572C0.341099 76.3444 0.25014 73.8729 0.25014 71.2201C0.25014 67.6376 0.432059 64.1231 0.773159 60.6767C1.137 57.2303 1.68276 54.5774 2.41044 52.6728C2.84249 51.5618 3.54743 50.6095 4.47977 49.8159C5.41211 49.045 6.66281 48.5008 8.20912 48.2287ZM66.0823 48.3421C68.4245 48.5235 70.5393 49.0676 72.4495 49.9519C74.3597 50.8362 75.9287 52.1059 77.1567 53.7158C78.18 55.2803 78.8849 57.9332 79.2715 61.697C79.6581 65.4609 79.84 69.2701 79.84 73.1474C79.84 76.3898 79.749 79.2467 79.5898 81.6955C79.4307 84.1443 79.2487 85.6407 79.0441 86.1396C78.7712 86.4797 77.5205 86.7518 75.292 86.9558C73.0635 87.1599 70.744 87.2506 68.3108 87.2506C66.5144 87.2506 64.9226 87.1826 63.5354 87.0692C62.1483 86.9332 61.3524 86.7518 61.0795 86.4797C60.7157 85.9128 60.4883 85.0285 60.4201 83.8268C60.3518 82.6251 60.3064 81.6274 60.3064 80.8565V80.5844C57.6685 80.6298 55.0762 80.7205 52.4838 80.8112C52.4838 81.6501 52.4383 82.6704 52.3701 83.8948C52.3019 85.1192 52.12 85.9808 51.8926 86.457C51.6879 86.7291 51.1649 86.9332 50.3008 87.0919C49.4367 87.2279 48.5043 87.3186 47.481 87.3186C46.4123 87.3186 45.4344 87.2506 44.5476 87.0919C43.6607 86.9332 43.115 86.7064 42.933 86.4343C42.7966 85.8902 42.7056 84.4617 42.7056 82.1489C42.7056 79.7908 42.7739 77.002 42.8876 73.7822C43.0013 70.5626 43.1377 67.7056 43.3196 65.2342C43.6152 61.2209 44.3884 57.9332 45.6164 55.4163C46.8671 52.8995 48.618 51.0629 50.892 49.8839C53.166 48.7275 56.0085 48.138 59.3968 48.138H60.1472C60.5338 48.1153 60.8976 48.1153 61.2842 48.1153C62.785 48.1607 64.3768 48.2287 66.0823 48.3421ZM60.2609 61.5383C60.1699 59.7697 59.7833 58.3413 59.0784 57.2076C58.3735 56.0739 57.5321 55.5297 56.5088 55.5297H56.3724C55.7584 55.5751 55.1671 55.8018 54.5986 56.2553C54.0074 56.7088 53.5299 57.389 53.1433 58.2506C52.7567 59.1349 52.552 60.2232 52.552 61.5383H60.2609ZM103.876 52.6955C105.377 50.4281 107.242 49.0223 109.516 48.4781C110.835 48.2514 112.176 48.1153 113.563 48.1153C114.814 48.1153 115.997 48.1833 117.065 48.2967C118.134 48.4328 118.93 48.5688 119.453 48.7048C120.567 49.0223 121.682 49.6345 122.796 50.4961C123.91 51.3577 124.683 52.4007 125.092 53.6024C125.388 54.6681 125.616 56.482 125.797 59.0442C125.979 61.629 126.048 64.4633 126.048 67.5696C126.048 70.0637 125.979 72.5579 125.866 75.052C125.729 77.5461 125.525 79.7682 125.229 81.7408C125.092 82.8065 124.82 83.7361 124.365 84.5297C123.91 85.346 123.228 85.9808 122.273 86.4797C121.545 86.8425 120.658 87.0919 119.612 87.2506C118.566 87.4093 117.497 87.4773 116.383 87.4773C113.995 87.4773 111.903 87.2506 110.084 86.8198C109.197 86.593 108.583 86.0942 108.219 85.3687C107.856 84.6431 107.628 83.8268 107.515 82.9199C107.378 81.6955 107.333 80.3124 107.333 78.7705C107.333 77.3647 107.355 75.9816 107.424 74.5985C107.492 73.2154 107.583 71.6282 107.719 69.8143C106.991 71.3788 106.355 72.7166 105.786 73.8503C105.241 74.984 104.649 76.095 104.058 77.206C103.49 78.2264 102.898 78.9519 102.262 79.36C101.625 79.7682 100.988 79.9949 100.351 79.9949C99.5555 79.9949 98.8506 79.7682 98.1684 79.292C97.5089 78.8385 96.9859 78.2944 96.6448 77.6595C96.3265 77.07 95.9854 76.3671 95.6443 75.5055C95.3032 74.6665 95.0075 73.8049 94.7347 72.966C94.4618 72.1271 94.1434 71.1294 93.8023 69.973C93.7568 70.6986 93.7568 71.4015 93.7568 72.1044C93.7568 73.6462 93.8023 75.188 93.916 76.7525C94.0525 78.6118 94.1434 80.9926 94.1889 83.9402C94.1889 84.439 93.9842 84.9378 93.5977 85.482C93.1883 86.0262 92.6426 86.4797 91.9376 86.8425C91.2327 87.2052 90.4141 87.3866 89.4817 87.3866C88.5039 87.3866 87.708 87.2052 87.0486 86.8651C86.3891 86.525 85.8661 86.0715 85.5022 85.5274C85.1384 84.9832 84.911 84.3937 84.8428 83.7588C84.7518 82.9879 84.6381 81.174 84.5244 78.3624C84.388 75.5508 84.3425 72.3765 84.3425 68.8393C84.3425 64.5993 84.5017 60.5407 84.8428 56.6861C85.1839 52.8315 85.8206 50.3147 86.7757 49.1357C87.1395 48.7729 87.6625 48.5008 88.3675 48.3421C89.0724 48.1833 89.8001 48.0927 90.5505 48.0927C91.2554 48.0927 91.9376 48.1607 92.5516 48.3194C93.1656 48.4554 93.6659 48.6822 94.007 48.9996C94.4845 49.4758 95.053 50.3147 95.7352 51.4937C96.4174 52.6728 97.0996 53.9652 97.7818 55.3256C98.464 56.6861 99.2599 58.3866 100.192 60.4046C101.125 57.525 102.375 54.9629 103.876 52.6955ZM162.977 52.5368C162.977 53.3757 162.727 53.9652 162.25 54.3053C161.772 54.6454 161.181 54.8722 160.476 54.9402C159.771 55.0082 159.066 55.0536 158.338 55.0536C158.179 55.0536 158.02 55.0536 157.838 55.0536H156.178C155.223 55.0536 154.313 55.0762 153.449 55.1216C152.585 55.1669 151.857 55.303 151.289 55.5297C150.72 55.7565 150.425 56.1419 150.425 56.6634C150.425 57.3436 150.584 57.7518 150.925 57.9105C151.266 58.0692 151.857 58.1599 152.722 58.1599H154.45C155.7 58.1599 156.61 58.2279 157.179 58.364C157.747 58.5 158.111 58.7948 158.247 59.2256C158.384 59.6564 158.475 60.3366 158.475 61.2209C158.475 62.0145 158.407 62.6493 158.293 63.1255C158.179 63.6016 157.838 63.9191 157.338 64.1005C156.837 64.2819 155.973 64.3952 154.791 64.3952C153.677 64.3952 152.835 64.5086 152.267 64.758C151.698 65.0074 151.289 65.3022 151.084 65.6423C150.88 65.9824 150.766 66.2998 150.766 66.5946C150.766 67.0934 150.925 67.5016 151.266 67.7737C151.607 68.0457 152.039 68.2271 152.585 68.3405C153.131 68.4312 153.745 68.4992 154.382 68.4992C155.087 68.4992 155.814 68.4765 156.542 68.4085C157.156 68.3632 157.747 68.3405 158.27 68.3178H158.497C159.794 68.3178 160.771 68.5219 161.408 68.93C162.045 69.3382 162.477 70.1091 162.704 71.1974C162.932 72.3084 163.023 73.9183 163.023 76.0043C163.023 78.249 162.932 80.0629 162.75 81.4687C162.568 82.8745 162.159 83.9855 161.545 84.7791C160.931 85.5727 159.976 86.1622 158.702 86.5023C157.429 86.8425 155.746 87.0692 153.654 87.1372C151.562 87.2052 148.901 87.2506 145.695 87.2506H144.626C141.579 87.2506 139.078 87.2279 137.122 87.1599C135.166 87.1145 133.62 86.9332 132.483 86.6611C131.346 86.389 130.527 85.9128 130.027 85.3006C129.527 84.6884 129.186 83.8041 129.072 82.6704C128.936 81.5594 128.89 80.1083 128.89 78.317C128.89 76.0497 128.867 73.6462 128.799 71.0614C128.754 68.7713 128.708 66.8214 128.708 65.2115C128.708 61.9238 128.754 59.2029 128.822 57.0715C128.89 54.9402 129.072 53.2623 129.345 52.0152C129.618 50.7682 130.027 49.8612 130.573 49.2717C131.119 48.6822 131.869 48.3194 132.801 48.1607C133.734 48.002 134.916 47.9339 136.326 47.9339H146.4C148.196 47.9566 149.902 47.9566 151.494 47.9566C153.085 47.9566 154.2 47.9566 154.836 47.9566C157.224 47.9566 158.998 48.0246 160.158 48.138C161.317 48.274 162.068 48.5008 162.432 48.8409C162.795 49.181 162.977 49.6798 162.977 50.3147V52.5368Z" fill="#212224"/>
</g>
<defs>
<clipPath id="clip0_177_327">
<rect width="163" height="87" fill="white" transform="translate(0 0.5)"/>
</clipPath>
</defs>
</svg>
