<svg width="163" height="85" viewBox="0 0 163 85" fill="none" xmlns="http://www.w3.org/2000/svg">
<path d="M24.6694 34.7868C25.0787 35.4156 25.6244 35.8277 26.2837 36.0228C26.9431 36.218 27.6479 36.3047 28.3982 36.3264C29.1031 36.3698 29.7624 36.4565 30.3991 36.6083C31.013 36.7601 31.5359 37.0854 31.9224 37.6276C32.309 38.148 32.5136 39.0154 32.5136 40.1864C32.5136 41.3575 32.309 42.2249 31.8997 42.8321C31.4904 43.4176 30.7856 43.8296 29.8079 44.0465C28.8302 44.2633 27.4888 44.3717 25.7835 44.3717C25.1924 44.3717 24.533 44.3717 23.8509 44.3501C23.669 44.3501 23.0324 44.3501 21.9637 44.3501C20.8951 44.3501 19.6901 44.3501 18.3486 44.3284H13.0054C8.84461 44.3284 5.88883 43.7429 4.06988 42.5718C2.27368 41.4008 1.13684 39.4491 0.70484 36.7601C0.272841 34.0711 0.0454736 30.5364 0.0454736 26.1993C0.0454736 25.8307 0.0454736 25.4403 0.0454736 25.05C0 22.9899 0 21.1032 0 19.4118C0 15.9638 0.0682104 13.1447 0.204631 10.9111C0.341052 8.69915 0.613893 6.94262 1.02316 5.66318C1.43242 4.38374 2.02357 3.42958 2.81936 2.84407C3.61515 2.25856 4.66104 1.88991 5.95704 1.73811C7.25303 1.58631 8.86735 1.52126 10.8227 1.52126C11.664 1.52126 12.6417 1.54294 13.7103 1.58631C14.8016 1.62968 15.893 1.78148 17.0071 2.02002C18.1212 2.25856 19.1444 2.67059 20.0766 3.21272C21.0088 3.75486 21.7591 4.51385 22.3503 5.4897C22.9414 6.46554 23.2143 7.7233 23.2143 9.24128C23.1688 11.1496 23.1006 13.188 22.9642 15.3783C22.805 18.089 22.714 20.778 22.714 23.4236C22.714 25.6789 22.8505 27.804 23.1233 29.7774C23.3962 31.7725 23.9191 33.4423 24.6694 34.7868ZM50.6121 0.914062H51.2942C57.4331 1.08755 62.0942 2.9525 65.2773 6.48723C68.4604 10.022 70.1657 14.8578 70.4386 20.9731C70.4613 21.4502 70.4613 21.9273 70.4613 22.4044C70.4613 26.98 69.5973 30.9267 67.8693 34.2446C66.1413 37.5625 63.8221 40.1431 60.9573 41.943C58.0925 43.7429 54.8866 44.6536 51.3851 44.697C49.0432 44.697 46.7241 44.3284 44.4504 43.5911C42.1767 42.8538 40.1304 41.6827 38.3115 40.0997C36.4925 38.5167 35.0374 36.4782 33.946 33.9627C32.8547 31.4689 32.309 28.4546 32.309 24.9632C32.309 24.3994 32.3317 23.7922 32.3772 23.185C32.4909 20.8213 32.8319 18.3492 33.4458 15.7903C34.0597 13.2314 35.0374 10.846 36.3789 8.6124C37.7203 6.3788 39.5393 4.55722 41.8584 3.14767C44.2003 1.73811 47.1106 1.0008 50.6121 0.914062ZM56.2508 13.3832C56.2281 12.5375 56.0462 11.7351 55.7279 10.9544C55.3868 10.1954 54.9093 9.56656 54.2272 9.0678C53.5679 8.56903 52.7039 8.33049 51.6807 8.33049C50.6576 8.33049 49.9072 8.63409 49.3843 9.24128C48.8841 9.84847 48.543 10.5424 48.3839 11.3448C48.2247 12.1254 48.1338 12.8194 48.1338 13.3615V13.8169C48.1792 14.5542 48.3384 15.2698 48.6567 15.9855C48.975 16.7011 49.407 17.2866 50.0209 17.7854C50.6348 18.2841 51.3851 18.4793 52.3856 18.4793H52.5674C53.8407 18.3709 54.7502 17.8504 55.3641 16.8529C55.978 15.8553 56.2508 14.7928 56.2508 13.6217V13.3832ZM111.024 1.54294C112.479 1.7598 113.525 2.23688 114.207 2.9525C114.866 3.66812 115.207 4.44879 115.207 5.25116C115.207 6.09689 114.889 6.85588 114.252 7.52813C113.616 8.20038 112.729 8.54735 111.592 8.54735C108.227 8.56903 105.453 8.72083 103.248 9.00274C102.225 9.11117 101.179 9.41477 100.065 9.91353C98.9732 10.3906 98.0637 11.193 97.3589 12.2772C96.6995 13.4483 96.2221 15.0313 95.9492 17.048C95.6764 19.0648 95.54 21.19 95.54 23.4236C95.54 26.9366 95.7901 30.1027 96.2903 32.9001C96.4267 33.5724 96.7677 34.0711 97.268 34.3747C97.7682 34.6783 98.3593 34.8301 98.996 34.8301C99.7008 34.8301 100.36 34.6566 100.997 34.3097C101.611 33.9627 101.997 33.4856 102.156 32.9001C102.338 31.8809 102.429 30.8617 102.429 29.8425C102.429 28.5413 102.338 27.2185 102.156 25.8957C102.065 25.3753 101.861 24.9416 101.497 24.5512C101.133 24.1609 100.747 23.8139 100.315 23.4886C99.7463 23.0983 99.2688 22.6429 98.8823 22.1441C98.564 21.602 98.4048 21.0165 98.4048 20.3659C98.4048 19.6069 98.5185 18.913 98.7686 18.2624C98.9732 17.6986 99.2915 17.1348 99.6781 16.5927C100.087 16.0505 100.588 15.6602 101.179 15.4C102.247 14.9662 103.589 14.6626 105.203 14.4675C106.795 14.2723 108.409 14.1856 110.001 14.1856C112.32 14.1856 114.252 14.3591 115.753 14.6843C118.527 15.465 120.187 17.2649 120.71 20.019C120.937 21.6671 121.051 23.6187 121.051 25.874C121.051 27.8257 120.982 29.7991 120.846 31.7725C120.71 33.7459 120.55 35.394 120.323 36.7385C119.959 38.9721 118.891 40.6418 117.072 41.7044C115.253 42.7887 112.661 43.5477 109.296 44.0031C107.863 44.1983 105.999 44.3501 103.702 44.4368C101.406 44.5235 99.0187 44.5669 96.5859 44.5669C93.6301 44.5669 90.9244 44.5235 88.4461 44.4151C85.9678 44.3067 84.308 44.1766 83.444 44.0031C81.1703 43.4826 79.4423 42.8321 78.2827 42.0514C77.1232 41.249 76.3274 40.3816 75.8499 39.3841C75.3724 38.4082 75.0314 37.389 74.8268 36.3047C74.6903 35.6108 74.5312 33.9193 74.372 31.2087C74.2129 28.498 74.1447 25.6138 74.1447 22.4911C74.1447 20.2575 74.1901 18.1323 74.3265 16.1156C74.4402 14.0988 74.6449 12.4941 74.9404 11.3014C75.327 9.2196 76.1 7.35465 77.2369 5.68487C78.3737 4.01508 80.4655 2.73564 83.5349 1.86822C84.9674 1.52126 86.9 1.26103 89.3328 1.10923C91.7657 0.957433 94.2894 0.914062 96.9496 0.914062C99.8827 0.914062 102.634 0.979119 105.226 1.08755C107.818 1.21766 109.75 1.36946 111.024 1.54294ZM142.901 0.914062H143.583C149.722 1.08755 154.383 2.9525 157.566 6.48723C160.749 10.022 162.454 14.8578 162.727 20.9731C162.75 21.4502 162.75 21.9273 162.75 22.4044C162.75 26.98 161.886 30.9267 160.158 34.2446C158.43 37.5625 156.111 40.1431 153.246 41.943C150.381 43.7429 147.175 44.6536 143.674 44.697C141.332 44.697 139.013 44.3284 136.739 43.5911C134.465 42.8538 132.419 41.6827 130.6 40.0997C128.781 38.5167 127.326 36.4782 126.235 33.9627C125.143 31.4689 124.598 28.4546 124.598 24.9632C124.598 24.3994 124.62 23.7922 124.666 23.185C124.779 20.8213 125.121 18.3492 125.734 15.7903C126.348 13.2314 127.326 10.846 128.667 8.6124C130.009 6.3788 131.828 4.55722 134.147 3.14767C136.466 1.73811 139.376 1.0008 142.901 0.914062ZM148.517 13.3832C148.494 12.5375 148.312 11.7351 147.994 10.9544C147.653 10.1954 147.175 9.56656 146.493 9.0678C145.834 8.56903 144.97 8.33049 143.947 8.33049C142.923 8.33049 142.173 8.63409 141.65 9.24128C141.15 9.84847 140.809 10.5424 140.65 11.3448C140.491 12.1254 140.4 12.8194 140.4 13.3615V13.8169C140.445 14.5542 140.604 15.2698 140.923 15.9855C141.241 16.7011 141.673 17.2866 142.287 17.7854C142.901 18.2841 143.696 18.5227 144.674 18.5227H144.856C146.129 18.4142 147.039 17.8938 147.653 16.8963C148.267 15.8987 148.539 14.8361 148.539 13.6651V13.3832H148.517ZM8.20798 46.562C8.95829 46.4535 9.77682 46.4102 10.6863 46.4102C11.8686 46.4102 13.0509 46.4752 14.2105 46.5837C15.3701 46.7138 16.2795 46.8439 16.9162 46.9957C18.8943 47.5378 20.6677 48.6004 22.2366 50.1618C23.8054 51.7448 25.1469 53.4363 26.261 55.2795C27.3751 57.1228 28.5119 59.3998 29.717 62.1538C29.4214 59.6383 29.285 57.5782 29.285 55.9084C29.285 54.282 29.4214 52.6773 29.717 51.0942C29.9898 49.5112 30.5355 48.2968 31.354 47.4511C31.7633 47.0607 32.309 46.7788 33.0138 46.5837C33.7187 46.3885 34.4462 46.2801 35.1965 46.2801C35.9696 46.2801 36.6517 46.3885 37.2883 46.627C37.925 46.8656 38.3342 47.2125 38.5616 47.6896C38.8799 48.5353 39.13 49.8582 39.2892 51.6797C39.4483 53.5013 39.5165 55.5614 39.5165 57.8601C39.5165 61.5249 39.3346 65.2115 38.9936 68.9847C38.6525 72.758 38.1751 75.4687 37.6066 77.1602C37.1292 78.4179 36.4243 79.654 35.4694 80.8901C34.5144 82.1261 33.4685 82.9502 32.2862 83.3839C31.1039 83.7309 29.4441 83.9043 27.3296 83.9043C26.0791 83.9043 24.8513 83.8176 23.6463 83.6224C22.4412 83.4489 21.4408 83.1454 20.6677 82.7116C19.3945 81.931 18.1894 80.9118 17.0753 79.6323C15.9612 78.3529 14.9835 77.0734 14.1195 75.7506C13.2555 74.4278 12.3461 72.8664 11.3911 71.0015C11.2774 72.5412 11.1638 73.8857 11.0273 74.9916C10.8909 76.0976 10.7318 77.2252 10.5271 78.3312C10.3225 79.4371 10.0724 80.3696 9.77682 81.1286C9.39029 81.9743 8.79914 82.6249 7.98061 83.0803C7.16209 83.514 6.29809 83.7525 5.38862 83.7525C4.50188 83.7525 3.66062 83.514 2.88757 83.0586C2.11452 82.6032 1.59157 81.8876 1.31873 80.9551C0.977682 79.6323 0.70484 77.8758 0.522946 75.6639C0.341052 73.452 0.250105 71.0882 0.250105 68.551C0.250105 65.1247 0.431999 61.7635 0.773051 58.4673C1.13684 55.1711 1.68252 52.6339 2.4101 50.8123C2.8421 49.7497 3.54694 48.8389 4.47915 48.08C5.41135 47.3426 6.66188 46.8222 8.20798 46.562ZM66.0731 46.6704C68.415 46.8439 70.5295 47.3643 72.4394 48.2101C74.3493 49.0558 75.9181 50.2702 77.1459 51.8099C78.1691 53.3061 78.8739 55.8433 79.2604 59.4431C79.6469 63.0429 79.8288 66.6861 79.8288 70.3943C79.8288 73.4953 79.7379 76.2277 79.5787 78.5697C79.4196 80.9118 79.2377 82.343 79.0331 82.8201C78.7602 83.1454 77.5097 83.4056 75.2815 83.6007C73.0533 83.7959 70.7341 83.8827 68.3013 83.8827C66.5051 83.8827 64.9135 83.8176 63.5266 83.7092C62.1396 83.5791 61.3438 83.4056 61.071 83.1453C60.7072 82.6032 60.4798 81.7575 60.4116 80.6082C60.3434 79.4588 60.298 78.5047 60.298 77.7674V77.5071C57.6605 77.5505 55.0685 77.6372 52.4765 77.724C52.4765 78.5263 52.431 79.5022 52.3628 80.6732C52.2946 81.8442 52.1127 82.6683 51.8853 83.1237C51.6807 83.3839 51.1578 83.5791 50.2938 83.7309C49.4298 83.861 48.4976 83.9477 47.4744 83.9477C46.4058 83.9477 45.4281 83.8827 44.5414 83.7309C43.6546 83.5791 43.1089 83.3622 42.927 83.102C42.7906 82.5815 42.6997 81.2153 42.6997 79.0034C42.6997 76.7481 42.7679 74.0808 42.8816 71.0015C42.9953 67.9222 43.1317 65.1898 43.3136 62.8261C43.6091 58.9877 44.3822 55.8433 45.61 53.4363C46.8605 51.0292 48.6112 49.2727 50.8849 48.145C53.1586 47.0391 56.0007 46.4752 59.3885 46.4752H60.1388C60.5253 46.4535 60.8891 46.4535 61.2756 46.4535C62.7763 46.4969 64.3678 46.562 66.0731 46.6704ZM60.2525 59.2913C60.1615 57.5999 59.775 56.2337 59.0702 55.1494C58.3653 54.0651 57.5241 53.5447 56.5009 53.5447H56.3645C55.7506 53.5881 55.1594 53.8049 54.591 54.2386C53.9999 54.6723 53.5224 55.3229 53.1359 56.1469C52.7493 56.9927 52.5447 58.0336 52.5447 59.2913H60.2525ZM103.862 50.834C105.362 48.6655 107.227 47.321 109.5 46.8005C110.819 46.5837 112.161 46.4535 113.547 46.4535C114.798 46.4535 115.98 46.5186 117.049 46.627C118.118 46.7571 118.913 46.8873 119.436 47.0174C120.55 47.321 121.665 47.9065 122.779 48.7305C123.893 49.5546 124.666 50.5521 125.075 51.7014C125.371 52.7206 125.598 54.4555 125.78 56.9059C125.962 59.3781 126.03 62.0888 126.03 65.0597C126.03 67.4451 125.962 69.8305 125.848 72.2159C125.712 74.6013 125.507 76.7265 125.211 78.6131C125.075 79.6323 124.802 80.5214 124.347 81.2804C123.893 82.0611 123.211 82.6683 122.256 83.1453C121.528 83.4923 120.641 83.7309 119.595 83.8827C118.55 84.0345 117.481 84.0995 116.367 84.0995C113.979 84.0995 111.888 83.8827 110.069 83.4706C109.182 83.2538 108.568 82.7767 108.204 82.0828C107.841 81.3888 107.613 80.6081 107.5 79.7407C107.363 78.5697 107.318 77.2469 107.318 75.7723C107.318 74.4278 107.34 73.105 107.409 71.7822C107.477 70.4594 107.568 68.9414 107.704 67.2065C106.977 68.7028 106.34 69.9823 105.772 71.0665C105.226 72.1508 104.635 73.2134 104.044 74.276C103.475 75.2518 102.884 75.9458 102.247 76.3361C101.611 76.7264 100.974 76.9433 100.337 76.9433C99.5416 76.9433 98.8368 76.7265 98.1547 76.2711C97.4953 75.8373 96.9724 75.3169 96.6313 74.7097C96.313 74.1459 95.972 73.4736 95.6309 72.6496C95.2899 71.8472 94.9943 71.0232 94.7214 70.2208C94.4486 69.4184 94.1303 68.4643 93.7892 67.3583C93.7438 68.0523 93.7438 68.7245 93.7438 69.3968C93.7438 70.8714 93.7892 72.346 93.9029 73.8423C94.0393 75.6205 94.1303 77.8975 94.1758 80.7166C94.1758 81.1937 93.9711 81.6707 93.5846 82.1912C93.1753 82.7116 92.6297 83.1454 91.9248 83.4923C91.22 83.8393 90.4014 84.0128 89.4692 84.0128C88.4916 84.0128 87.6958 83.8393 87.0364 83.514C86.377 83.1887 85.8541 82.755 85.4903 82.2346C85.1265 81.7141 84.8992 81.1503 84.8309 80.5431C84.74 79.8058 84.6263 78.071 84.5126 75.382C84.3762 72.693 84.3307 69.657 84.3307 66.2741C84.3307 62.2189 84.4899 58.3372 84.8309 54.6507C85.172 50.9641 85.8086 48.557 86.7636 47.4294C87.1273 47.0824 87.6503 46.8222 88.3551 46.6704C89.06 46.5186 89.7876 46.4319 90.5379 46.4319C91.2427 46.4319 91.9248 46.4969 92.5387 46.6487C93.1526 46.7788 93.6528 46.9957 93.9939 47.2993C94.4713 47.7547 95.0397 48.557 95.7219 49.6847C96.404 50.8123 97.0861 52.0484 97.7682 53.3495C98.4503 54.6507 99.2461 56.2771 100.178 58.2071C101.11 55.453 102.361 53.0026 103.862 50.834ZM162.955 50.6822C162.955 51.4846 162.704 52.0484 162.227 52.3737C161.749 52.699 161.158 52.9158 160.453 52.9809C159.749 53.0459 159.044 53.0893 158.316 53.0893C158.157 53.0893 157.998 53.0893 157.816 53.0893H156.156C155.201 53.0893 154.292 53.111 153.428 53.1544C152.564 53.1977 151.836 53.3278 151.268 53.5447C150.699 53.7615 150.404 54.1302 150.404 54.629C150.404 55.2795 150.563 55.6699 150.904 55.8217C151.245 55.9735 151.836 56.0602 152.7 56.0602H154.428C155.679 56.0602 156.588 56.1253 157.157 56.2554C157.725 56.3855 158.089 56.6674 158.225 57.0794C158.362 57.4914 158.453 58.142 158.453 58.9877C158.453 59.7467 158.384 60.3539 158.271 60.8093C158.157 61.2647 157.816 61.5683 157.316 61.7418C156.816 61.9153 155.952 62.0237 154.769 62.0237C153.655 62.0237 152.814 62.1321 152.245 62.3707C151.677 62.6092 151.268 62.8911 151.063 63.2164C150.859 63.5417 150.745 63.8453 150.745 64.1272C150.745 64.6043 150.904 64.9946 151.245 65.2548C151.586 65.5151 152.018 65.6886 152.564 65.797C153.109 65.8837 153.723 65.9488 154.36 65.9488C155.065 65.9488 155.792 65.9271 156.52 65.862C157.134 65.8187 157.725 65.797 158.248 65.7753H158.475C159.771 65.7753 160.749 65.9705 161.386 66.3608C162.022 66.7511 162.454 67.4884 162.682 68.5294C162.909 69.5919 163 71.1316 163 73.1267C163 75.2735 162.909 77.0084 162.727 78.3529C162.545 79.6974 162.136 80.7599 161.522 81.5189C160.908 82.2779 159.953 82.8418 158.68 83.167C157.407 83.4923 155.724 83.7092 153.632 83.7742C151.541 83.8393 148.88 83.8827 145.675 83.8827H144.606C141.559 83.8827 139.058 83.861 137.103 83.7959C135.147 83.7525 133.601 83.5791 132.464 83.3188C131.328 83.0586 130.509 82.6032 130.009 82.0177C129.509 81.4322 129.168 80.5865 129.054 79.5022C128.918 78.4396 128.872 77.0517 128.872 75.3386C128.872 73.17 128.849 70.8714 128.781 68.3992C128.736 66.209 128.69 64.3441 128.69 62.8044C128.69 59.66 128.736 57.0577 128.804 55.0193C128.872 52.9809 129.054 51.3761 129.327 50.1834C129.6 48.9907 130.009 48.1233 130.555 47.5595C131.1 46.9957 131.851 46.6487 132.783 46.4969C133.715 46.3451 134.897 46.2801 136.307 46.2801H146.379C148.176 46.3017 149.881 46.3017 151.472 46.3017C153.064 46.3017 154.178 46.3017 154.815 46.3017C157.202 46.3017 158.976 46.3668 160.135 46.4752C161.295 46.6053 162.045 46.8222 162.409 47.1475C162.773 47.4728 162.955 47.9498 162.955 48.557V50.6822Z" fill="white"/>
</svg>
