<svg width="94" height="75" viewBox="0 0 94 75" fill="none" xmlns="http://www.w3.org/2000/svg">
<path d="M28.1969 0.900391L0.296875 28.6004L46.7969 74.8004L93.2969 28.6004L65.3969 0.900391H28.1969Z" fill="#2DE370"/>
<path d="M26.8984 18.9004C37.8984 7.90039 55.6984 7.90039 66.5984 18.9004L76.0984 28.4004L66.5984 37.9004C55.5984 48.9004 37.7984 48.9004 26.8984 37.9004L17.3984 28.4004L26.8984 18.9004Z" fill="black"/>
<path fill-rule="evenodd" clip-rule="evenodd" d="M46.8031 40.0004C40.4031 40.0004 35.2031 34.9004 35.2031 28.7004C35.2031 22.5004 40.4031 17.4004 46.8031 17.4004C53.2031 17.4004 58.4031 22.5004 58.4031 28.7004C58.4031 34.9004 53.2031 40.0004 46.8031 40.0004Z" fill="white"/>
<path d="M46.7984 33.3C44.0984 33.3 41.8984 31.1 41.8984 28.4C41.8984 25.7 44.0984 23.5 46.7984 23.5C49.4984 23.5 51.6984 25.7 51.6984 28.4C51.5984 31.1 49.4984 33.3 46.7984 33.3Z" fill="black"/>
</svg>
