<svg width="120" height="96" viewBox="0 0 120 96" fill="none" xmlns="http://www.w3.org/2000/svg">
<path fill-rule="evenodd" clip-rule="evenodd" d="M0 35.8213L35.6757 0H84.3243L120 35.8213L60 96L0 35.8213ZM87.5676 22.7795C72.4054 7.50297 47.5946 7.50305 32.4324 22.7796L19.4595 35.7967L32.4324 48.8137C47.5946 64.0902 72.4054 64.0902 87.5676 48.8136L100.541 35.7967L87.5676 22.7795Z" fill="white"/>
<path fill-rule="evenodd" clip-rule="evenodd" d="M59.5 52C50.391 52 43 44.6164 43 35.5C43 26.3836 50.391 19 59.5 19C68.609 19 76 26.3836 76 35.5C76 44.6164 68.609 52 59.5 52ZM52.3261 35.5C52.3261 39.4637 55.5396 42.6739 59.5 42.6739C63.4604 42.6739 66.6739 39.4637 66.6739 35.5C66.6739 31.5363 63.4604 28.3261 59.5 28.3261C55.5396 28.3261 52.3261 31.5363 52.3261 35.5Z" fill="white"/>
</svg>
