<svg width="39" height="35" viewBox="0 0 39 35" fill="none" xmlns="http://www.w3.org/2000/svg">
<path fill-rule="evenodd" clip-rule="evenodd" d="M18.2992 0.43292C17.7888 0.790238 17.6825 1.12814 17.6825 2.39345C17.6825 3.7689 17.6295 3.90539 17.1557 3.75503C16.8661 3.66321 15.7941 3.35638 14.7735 3.07341C12.6046 2.47196 12.6443 2.21036 14.3241 6.02378C16.4902 10.9405 17.0678 14.7725 16.0965 17.7798C15.8346 18.5909 15.0232 20.2482 14.2933 21.4625C13.5634 22.6768 12.9664 23.7751 12.9664 23.9035C12.9664 24.0317 14.0275 24.1366 15.3245 24.1366H17.6825V25.8011V27.4656H14.7741C11.9785 27.4656 11.8315 27.4354 10.9939 26.6869C10.4097 26.1648 10.0635 25.5473 9.94444 24.8143L9.76662 23.7204H5.05518H0.34375L0.424202 25.2463C0.530732 27.2686 2.02769 30.3719 3.56765 31.7631C4.19823 32.3327 5.54095 33.1905 6.55159 33.6693L8.38895 34.5398L18.0404 34.6286C30.3246 34.7413 29.4632 35.0517 33.4955 29.0572C35.3445 26.3085 35.7534 25.8699 37.1672 25.1195C38.7196 24.2955 38.7579 24.2467 38.7623 23.0962C38.7646 22.4476 38.6758 21.9172 38.5648 21.9172C38.4538 21.9172 36.3002 22.4976 33.7793 23.2069C29.7395 24.3438 29.0637 24.6187 28.0858 25.524C26.1289 27.3358 25.809 27.4656 23.3078 27.4656H21.0116V25.8011V24.1366H22.5133H24.0149L25.7075 22.264C26.6382 21.2339 27.7901 19.6107 28.267 18.6567C29.0277 17.1345 29.1159 16.725 28.9874 15.3104C28.7278 12.4447 26.3866 8.93115 22.7951 6.01629L21.0235 4.57842L21.0177 2.72164C21.0124 1.12092 20.9264 0.805219 20.3949 0.43292C20.0559 0.195448 19.5843 0.000976562 19.3471 0.000976562C19.1099 0.000976562 18.6383 0.195448 18.2992 0.43292ZM6.85509 13.0975C4.67678 16.4989 2.83582 19.5034 2.76397 19.7744C2.64218 20.2335 2.93375 20.2618 7.03708 20.1905L11.4406 20.114L12.3968 18.1803C13.6785 15.5881 13.6721 13.7155 12.3688 9.85551C11.8581 8.34357 11.2999 7.06327 11.1282 7.01001C10.9565 6.95674 9.03339 9.696 6.85509 13.0975Z" fill="white"/>
</svg>
