<svg width="90" height="90" viewBox="0 0 90 90" fill="none" xmlns="http://www.w3.org/2000/svg">
<path fill-rule="evenodd" clip-rule="evenodd" d="M90 45C90 69.8516 69.8514 90 45 90C20.1486 90 0 69.8516 0 45C0 20.1484 20.1486 0 45 0C69.8566 0 90 20.1484 90 45ZM22.2011 46.5117L22.3953 46.207L34.1016 27.8945C34.2726 27.625 34.6749 27.6543 34.8043 27.9453C36.76 32.3281 38.4475 37.7793 37.6569 41.1719C37.3194 42.5684 36.3948 44.459 35.3545 46.207L35.1698 46.5391L34.9903 46.834L34.9153 46.9512C34.8413 47.0625 34.7165 47.127 34.5824 47.127H22.5432C22.2196 47.127 22.0301 46.7754 22.2011 46.5117ZM74.38 52.8145V49.9141C74.38 49.7383 74.2682 49.5938 74.1195 49.5371C74.0418 49.5078 73.954 49.502 73.8668 49.5273L60.1771 53.4844C60.1032 53.502 60.0384 53.5449 59.9876 53.5996C58.5173 55.2246 57.2684 56.3125 56.9424 56.5957L56.9223 56.6133C56.0716 57.3359 55.0175 57.7285 53.9079 57.7285H48.9517V52.6758H52.8908C52.9925 52.6758 53.0896 52.6387 53.1635 52.5742L53.6721 52.1055C53.8894 51.9082 54.1483 51.668 54.4581 51.3574L54.545 51.2695C54.7057 51.1094 54.8771 50.9395 55.0452 50.752C55.2487 50.5527 55.4475 50.3301 55.6324 50.1133C55.9422 49.7812 56.2381 49.4336 56.5478 49.0684C56.7697 48.8281 56.9732 48.5547 57.172 48.2832C57.3939 48.0234 57.6112 47.7324 57.8146 47.4551L58.0455 47.127L58.2908 46.7793C58.4388 46.5586 58.5867 46.3223 58.7115 46.1016C59.0999 45.5 59.4282 44.8574 59.7056 44.2148C59.8489 43.9043 59.9598 43.5762 60.0708 43.2617C60.1452 43.041 60.2113 42.8281 60.2676 42.6133L60.3436 42.2949C60.4278 41.9043 60.4789 41.5156 60.4992 41.127C60.519 40.7461 60.5096 40.3672 60.473 39.9883C60.4634 39.8633 60.4537 39.7402 60.4389 39.6191C60.4252 39.5059 60.4072 39.3965 60.3806 39.291V39.2539C60.3621 39.0957 60.3251 38.9199 60.2742 38.7598C60.1545 38.2207 59.9869 37.6816 59.78 37.1484C59.6993 36.9395 59.6127 36.7324 59.5206 36.5254C59.4097 36.252 59.2802 35.9746 59.1554 35.7207C58.8595 35.1719 58.5497 34.6211 58.1984 34.0898L57.9727 33.752L57.7961 33.4883C57.5747 33.1484 57.326 32.8184 57.0845 32.5L56.9177 32.2773C56.7701 32.084 56.6083 31.8887 56.4457 31.6934L56.2011 31.3984C55.9607 31.1074 55.7249 30.8301 55.4845 30.5566C54.6245 29.5859 53.723 28.707 52.9185 27.959C52.7706 27.8105 52.6087 27.6621 52.4423 27.5195C51.8181 26.9512 51.2495 26.457 50.7733 26.0723C50.6292 25.9609 50.5001 25.8516 50.3799 25.75L50.1491 25.5586L49.599 25.1426L49.5327 25.1035L49.4787 25.082L48.9517 24.9355V20.5703C48.9517 19.8594 48.665 19.2207 48.2073 18.7539C47.7496 18.2871 47.1116 18 46.4089 18C45.0034 18 43.866 19.1504 43.866 20.5703V23.5117L43.6025 23.4375L42.8859 23.2344L42.234 23.0527L42.2016 23.0488L37.2546 21.707C37.0374 21.6484 36.8524 21.8828 36.9634 22.082L37.754 23.543C37.8047 23.6699 37.8708 23.7969 37.9371 23.9277L38.0268 24.1113C38.1562 24.3711 38.2857 24.6445 38.4105 24.916L38.6201 25.3633L38.7619 25.6523L38.9248 26.0156C39.1324 26.4766 39.3508 26.9609 39.5663 27.4824C39.7512 27.9219 39.9362 28.3613 40.098 28.8184C40.3434 29.4551 40.5818 30.1152 40.8076 30.793C40.9902 31.3398 41.1646 31.8965 41.3278 32.4609C41.4573 32.8633 41.5497 33.248 41.6607 33.6504L41.7115 33.8711C41.8595 34.459 41.9889 35.041 42.0814 35.6289C42.1554 36.0312 42.2247 36.4141 42.2617 36.8027C42.3172 37.2422 42.3727 37.6816 42.3912 38.1211C42.4282 38.5234 42.4467 38.9434 42.4467 39.3457C42.4467 39.8066 42.4281 40.2598 42.388 40.7031C42.3387 41.248 42.2568 41.7793 42.1369 42.2949L42.0981 42.4395C42.0366 42.6699 41.9728 42.9082 41.8965 43.1367C41.8415 43.332 41.7734 43.5273 41.7009 43.7266L41.5497 44.1445C41.5016 44.2734 41.4534 44.4062 41.4002 44.5352L41.3093 44.7461C40.8516 45.8457 40.2829 46.9414 39.6958 47.9688C38.8358 49.4902 37.9713 50.8262 37.3656 51.6855L37.1345 52.0273C36.9449 52.2969 37.1391 52.6758 37.4673 52.6758H43.866V57.7285H37.3934C35.655 57.7285 34.0461 56.7441 33.2693 55.168C32.8671 54.377 32.7099 53.5078 32.8024 52.6562C32.8255 52.4023 32.6359 52.1621 32.377 52.1621H19.3023C19.1823 52.1621 19.0745 52.2148 19.0007 52.2988C18.938 52.3691 18.9 52.4629 18.9 52.5645V52.832C18.9 61.1719 25.6362 67.9316 33.949 67.9316H57.4031C61.7998 67.9316 64.2963 63.9258 66.7502 59.9863C67.434 58.8887 68.1146 57.7969 68.832 56.7988C70.1219 55.0059 73.2242 53.582 74.1304 53.1934C74.2783 53.1289 74.38 52.9805 74.38 52.8145Z" fill="white"/>
</svg>
