<svg width="140" height="140" viewBox="0 0 140 140" fill="none" xmlns="http://www.w3.org/2000/svg">
<circle cx="69.7261" cy="69.9678" r="69.6445" fill="white"/>
<path d="M82.8504 55.5712C82.8504 58.1713 82.27 60.5624 81.1093 62.7446C79.995 64.9268 78.5789 66.784 76.861 68.3162C75.1895 69.8484 73.4716 71.2645 71.7073 72.5645C67.2036 75.9539 64.5339 78.6932 63.6981 80.7826H84.5219V87.5381H55.6194V81.3397C56.548 79.0182 57.8944 76.8593 59.6588 74.8628C61.3767 72.8199 63.1178 71.102 64.8821 69.7091L70.0358 65.6697C73.7502 62.6053 75.5841 59.2392 75.5377 55.5712C75.5377 53.5283 74.9341 51.9497 73.727 50.8354C72.5198 49.6747 70.9876 49.0943 69.1304 49.0943C67.3197 49.0943 65.6482 49.489 64.116 50.2783C62.6303 51.0211 60.7266 52.2051 58.4052 53.8301L54.8533 48.6068C56.9891 47.0282 59.3338 45.6585 61.8874 44.4978C64.441 43.337 66.6929 42.7567 68.6429 42.7567C72.7287 42.7567 76.1181 43.8477 78.811 46.0299C81.5039 48.1657 82.8504 51.3461 82.8504 55.5712Z" fill="#0A0D18"/>
</svg>
