<?xml version="1.0" standalone="no"?>
<!DOCTYPE svg PUBLIC "-//W3C//DTD SVG 20010904//EN"
 "http://www.w3.org/TR/2001/REC-SVG-20010904/DTD/svg10.dtd">
<svg version="1.0" xmlns="http://www.w3.org/2000/svg"
 width="818.000000pt" height="279.000000pt" viewBox="0 0 818.000000 279.000000"
 preserveAspectRatio="xMidYMid meet">

<g transform="translate(0.000000,279.000000) scale(0.100000,-0.100000)"
fill="#000000" stroke="none">
<path d="M10 2765 c0 -8 9 -15 20 -15 11 0 20 7 20 15 0 8 -9 15 -20 15 -11 0
-20 -7 -20 -15z"/>
<path d="M10 2625 c0 -28 4 -35 20 -35 16 0 20 7 20 35 0 28 -4 35 -20 35 -16
0 -20 -7 -20 -35z"/>
<path d="M10 2470 c0 -33 3 -40 20 -40 17 0 20 7 20 40 0 33 -3 40 -20 40 -17
0 -20 -7 -20 -40z"/>
<path d="M10 2295 c0 -38 3 -45 20 -45 17 0 20 7 20 45 0 38 -3 45 -20 45 -17
0 -20 -7 -20 -45z"/>
<path d="M10 2118 c0 -42 12 -60 33 -52 12 4 17 18 17 45 0 35 -3 39 -25 39
-22 0 -25 -4 -25 -32z"/>
<path d="M35 1933 c8 -46 16 -56 38 -47 12 4 15 13 11 33 -10 47 -13 51 -35
51 -19 0 -21 -4 -14 -37z"/>
<path d="M101 1791 c-11 -7 -10 -15 9 -40 17 -26 25 -29 36 -20 19 16 18 33
-4 52 -21 20 -22 20 -41 8z"/>
<path d="M199 1684 c-12 -14 -9 -20 16 -40 22 -17 32 -20 42 -12 19 15 16 27
-9 49 -28 23 -32 23 -49 3z"/>
<path d="M354 1605 c-8 -21 3 -31 43 -38 23 -5 33 -2 37 10 8 21 -1 29 -42 38
-25 5 -33 3 -38 -10z"/>
<path d="M530 1570 c0 -14 7 -20 23 -20 12 0 32 -3 45 -6 19 -5 22 -2 22 20 0
24 -3 26 -45 26 -38 0 -45 -3 -45 -20z"/>
<path d="M720 1560 c0 -17 7 -20 40 -20 33 0 40 3 40 20 0 17 -7 20 -40 20
-33 0 -40 -3 -40 -20z"/>
<path d="M900 1560 c0 -17 7 -20 45 -20 38 0 45 3 45 20 0 17 -7 20 -45 20
-38 0 -45 -3 -45 -20z"/>
<path d="M1100 1560 c0 -17 7 -20 45 -20 38 0 45 3 45 20 0 17 -7 20 -45 20
-38 0 -45 -3 -45 -20z"/>
<path d="M1300 1560 c0 -17 7 -20 45 -20 38 0 45 3 45 20 0 17 -7 20 -45 20
-38 0 -45 -3 -45 -20z"/>
<path d="M1500 1560 c0 -17 7 -20 45 -20 38 0 45 3 45 20 0 17 -7 20 -45 20
-38 0 -45 -3 -45 -20z"/>
<path d="M1700 1560 c0 -17 7 -20 45 -20 38 0 45 3 45 20 0 17 -7 20 -45 20
-38 0 -45 -3 -45 -20z"/>
<path d="M1890 1560 c0 -17 7 -20 50 -20 43 0 50 3 50 20 0 17 -7 20 -50 20
-43 0 -50 -3 -50 -20z"/>
<path d="M2090 1560 c0 -17 7 -20 50 -20 43 0 50 3 50 20 0 17 -7 20 -50 20
-43 0 -50 -3 -50 -20z"/>
<path d="M2290 1560 c0 -17 7 -20 50 -20 43 0 50 3 50 20 0 17 -7 20 -50 20
-43 0 -50 -3 -50 -20z"/>
<path d="M2490 1560 c0 -17 7 -20 50 -20 43 0 50 3 50 20 0 17 -7 20 -50 20
-43 0 -50 -3 -50 -20z"/>
<path d="M2690 1560 c0 -17 7 -20 50 -20 43 0 50 3 50 20 0 17 -7 20 -50 20
-43 0 -50 -3 -50 -20z"/>
<path d="M2890 1560 c0 -17 7 -20 45 -20 38 0 45 3 45 20 0 17 -7 20 -45 20
-38 0 -45 -3 -45 -20z"/>
<path d="M3090 1560 c0 -17 7 -20 45 -20 38 0 45 3 45 20 0 17 -7 20 -45 20
-38 0 -45 -3 -45 -20z"/>
<path d="M3290 1560 c0 -17 7 -20 45 -20 38 0 45 3 45 20 0 17 -7 20 -45 20
-38 0 -45 -3 -45 -20z"/>
<path d="M3490 1560 c0 -17 7 -20 45 -20 38 0 45 3 45 20 0 17 -7 20 -45 20
-38 0 -45 -3 -45 -20z"/>
<path d="M3690 1560 c0 -17 7 -20 45 -20 38 0 45 3 45 20 0 17 -7 20 -45 20
-38 0 -45 -3 -45 -20z"/>
<path d="M3890 1560 c0 -17 7 -20 45 -20 38 0 45 3 45 20 0 17 -7 20 -45 20
-38 0 -45 -3 -45 -20z"/>
<path d="M4090 1560 c0 -17 7 -20 45 -20 38 0 45 3 45 20 0 17 -7 20 -45 20
-38 0 -45 -3 -45 -20z"/>
<path d="M4290 1560 c0 -17 7 -20 45 -20 38 0 45 3 45 20 0 17 -7 20 -45 20
-38 0 -45 -3 -45 -20z"/>
<path d="M4490 1560 c0 -17 7 -20 45 -20 38 0 45 3 45 20 0 17 -7 20 -45 20
-38 0 -45 -3 -45 -20z"/>
<path d="M4680 1560 c0 -17 7 -20 50 -20 43 0 50 3 50 20 0 17 -7 20 -50 20
-43 0 -50 -3 -50 -20z"/>
<path d="M4880 1560 c0 -17 7 -20 50 -20 43 0 50 3 50 20 0 17 -7 20 -50 20
-43 0 -50 -3 -50 -20z"/>
<path d="M5080 1560 c0 -17 7 -20 50 -20 43 0 50 3 50 20 0 17 -7 20 -50 20
-43 0 -50 -3 -50 -20z"/>
<path d="M5280 1560 c0 -17 7 -20 50 -20 43 0 50 3 50 20 0 17 -7 20 -50 20
-43 0 -50 -3 -50 -20z"/>
<path d="M5480 1560 c0 -17 7 -20 50 -20 43 0 50 3 50 20 0 17 -7 20 -50 20
-43 0 -50 -3 -50 -20z"/>
<path d="M5680 1560 c0 -17 7 -20 45 -20 38 0 45 3 45 20 0 17 -7 20 -45 20
-38 0 -45 -3 -45 -20z"/>
<path d="M5880 1560 c0 -17 7 -20 45 -20 38 0 45 3 45 20 0 17 -7 20 -45 20
-38 0 -45 -3 -45 -20z"/>
<path d="M6080 1560 c0 -17 7 -20 45 -20 38 0 45 3 45 20 0 17 -7 20 -45 20
-38 0 -45 -3 -45 -20z"/>
<path d="M6280 1560 c0 -17 7 -20 45 -20 38 0 45 3 45 20 0 17 -7 20 -45 20
-38 0 -45 -3 -45 -20z"/>
<path d="M6480 1560 c0 -17 7 -20 45 -20 38 0 45 3 45 20 0 17 -7 20 -45 20
-38 0 -45 -3 -45 -20z"/>
<path d="M6680 1560 c0 -17 7 -20 45 -20 38 0 45 3 45 20 0 17 -7 20 -45 20
-38 0 -45 -3 -45 -20z"/>
<path d="M6880 1560 c0 -17 7 -20 45 -20 38 0 45 3 45 20 0 17 -7 20 -45 20
-38 0 -45 -3 -45 -20z"/>
<path d="M7080 1560 c0 -17 7 -20 45 -20 38 0 45 3 45 20 0 17 -7 20 -45 20
-38 0 -45 -3 -45 -20z"/>
<path d="M7260 1560 c0 -17 7 -20 45 -20 38 0 45 3 45 20 0 17 -7 20 -45 20
-38 0 -45 -3 -45 -20z"/>
<path d="M7450 1561 c0 -18 25 -31 63 -31 12 0 17 8 17 25 0 23 -4 25 -40 25
-33 0 -40 -4 -40 -19z"/>
<path d="M7630 1541 c0 -14 8 -22 28 -27 15 -3 32 -7 39 -9 11 -4 30 32 21 40
-2 2 -23 7 -46 11 -38 6 -42 5 -42 -15z"/>
<path d="M7806 1484 c-7 -18 19 -54 39 -54 7 0 18 6 24 14 9 11 6 18 -18 35
-35 25 -37 25 -45 5z"/>
<path d="M7911 1386 c-8 -10 -6 -19 10 -40 17 -21 24 -24 40 -15 19 10 19 10
-1 40 -24 32 -32 35 -49 15z"/>
<path d="M7985 1198 c9 -52 8 -51 34 -43 17 5 20 12 15 33 -10 48 -13 52 -35
52 -19 0 -20 -4 -14 -42z"/>
<path d="M8010 1015 c0 -42 2 -45 26 -45 22 0 25 3 20 23 -3 12 -6 32 -6 45 0
15 -6 22 -20 22 -17 0 -20 -7 -20 -45z"/>
<path d="M8014 848 c3 -13 6 -31 6 -40 0 -11 8 -18 20 -18 17 0 20 7 20 40 0
36 -2 40 -26 40 -22 0 -25 -3 -20 -22z"/>
<path d="M8020 650 c0 -33 3 -40 20 -40 17 0 20 7 20 40 0 33 -3 40 -20 40
-17 0 -20 -7 -20 -40z"/>
<path d="M8020 480 c0 -33 3 -40 20 -40 17 0 20 7 20 40 0 33 -3 40 -20 40
-17 0 -20 -7 -20 -40z"/>
<path d="M8018 313 c-2 -31 -9 -40 -39 -56 -119 -63 -72 -247 63 -247 13 0 39
8 57 18 93 50 90 184 -4 229 -31 15 -35 21 -35 55 0 31 -4 38 -19 38 -16 0
-20 -8 -23 -37z"/>
</g>
</svg>
