<svg width="818" height="279" viewBox="0 0 818 279" fill="none" xmlns="http://www.w3.org/2000/svg">
<path d="M790.422 264.811C790.422 272.175 796.392 278.144 803.755 278.144C811.119 278.144 817.089 272.175 817.089 264.811C817.089 257.447 811.119 251.478 803.755 251.478C796.392 251.478 790.422 257.447 790.422 264.811ZM784.089 133.069L785.606 131.082L784.089 133.069ZM793.503 142.482L795.49 140.966L793.503 142.482ZM13.2528 103.151L15.2401 101.634L13.2528 103.151ZM22.6659 112.564L21.1492 114.551L22.6659 112.564ZM0.5 0.822266V4.63403H5.5V0.822266H0.5ZM0.5 12.2576V19.8811H5.5V12.2576H0.5ZM0.5 27.5046V31.3164H5.5V27.5046H0.5ZM0.5 31.3164C0.5 32.8872 0.5 34.427 0.500674 35.936L5.50067 35.9338C5.5 34.4261 5.5 32.8874 5.5 31.3164H0.5ZM0.520569 45.1513C0.535946 48.3826 0.562833 51.4603 0.609892 54.3938L5.60925 54.3136C5.56259 51.4048 5.53583 48.347 5.52051 45.1275L0.520569 45.1513ZM0.854022 63.6706C0.982846 66.9644 1.15887 70.0586 1.39987 72.9718L6.38285 72.5595C6.14918 69.735 5.97693 66.7153 5.8502 63.4752L0.854022 63.6706ZM2.51351 82.3194C3.06196 85.6675 3.76358 88.7581 4.66496 91.6319L9.43578 90.1354C8.61847 87.5297 7.96605 84.6752 7.44775 81.5111L2.51351 82.3194ZM8.53481 100.571C9.35917 101.997 10.2669 103.359 11.2654 104.667L15.2401 101.634C14.3712 100.495 13.5815 99.3103 12.863 98.0681L8.53481 100.571ZM11.2654 104.667C11.9749 105.597 12.7146 106.502 13.4831 107.38L17.2466 104.089C16.5513 103.294 15.882 102.475 15.2401 101.634L11.2654 104.667ZM18.436 112.333C19.3148 113.102 20.2196 113.842 21.1492 114.551L24.1826 110.576C23.3415 109.934 22.5229 109.265 21.7278 108.57L18.436 112.333ZM21.1492 114.551C22.4576 115.55 23.8197 116.457 25.245 117.282L27.7484 112.953C26.5062 112.235 25.3212 111.445 24.1826 110.576L21.1492 114.551ZM34.1846 121.151C37.0583 122.053 40.1489 122.754 43.4971 123.303L44.3053 118.369C41.1412 117.85 38.2867 117.198 35.681 116.381L34.1846 121.151ZM52.8447 124.417C55.7579 124.658 58.852 124.834 62.1458 124.962L62.3412 119.966C59.1011 119.839 56.0814 119.667 53.2569 119.434L52.8447 124.417ZM71.4226 125.207C74.3561 125.254 77.4338 125.28 80.6651 125.296L80.6889 120.296C77.4694 120.281 74.4116 120.254 71.5028 120.207L71.4226 125.207ZM89.8804 125.316C91.3894 125.316 92.9292 125.316 94.5 125.316V120.316C92.929 120.316 91.3903 120.316 89.8826 120.316L89.8804 125.316ZM94.5 125.316H99.4819V120.316H94.5V125.316ZM109.446 125.316H119.409V120.316H109.446V125.316ZM129.373 125.316H139.337V120.316H129.373V125.316ZM149.301 125.316H159.265V120.316H149.301V125.316ZM169.228 125.316H179.192V120.316H169.228V125.316ZM189.156 125.316H199.12V120.316H189.156V125.316ZM209.084 125.316H219.047V120.316H209.084V125.316ZM229.011 125.316H238.975V120.316H229.011V125.316ZM248.939 125.316H258.903V120.316H248.939V125.316ZM268.866 125.316H278.83V120.316H268.866V125.316ZM288.794 125.316H298.758V120.316H288.794V125.316ZM308.722 125.316H318.685V120.316H308.722V125.316ZM328.649 125.316H338.613V120.316H328.649V125.316ZM348.577 125.316H358.541V120.316H348.577V125.316ZM368.504 125.316H378.468V120.316H368.504V125.316ZM388.432 125.316H398.396V120.316H388.432V125.316ZM408.36 125.316H418.323V120.316H408.36V125.316ZM428.287 125.316H438.251V120.316H428.287V125.316ZM448.215 125.316H458.179V120.316H448.215V125.316ZM468.142 125.316H478.106V120.316H468.142V125.316ZM488.07 125.316H498.034V120.316H488.07V125.316ZM507.998 125.316H517.961V120.316H507.998V125.316ZM527.925 125.316H537.889V120.316H527.925V125.316ZM547.853 125.316H557.817V120.316H547.853V125.316ZM567.78 125.316H577.744V120.316H567.78V125.316ZM587.708 125.316H597.672V120.316H587.708V125.316ZM607.636 125.316H617.599V120.316H607.636V125.316ZM627.563 125.316H637.527V120.316H627.563V125.316ZM647.491 125.316H657.455V120.316H647.491V125.316ZM667.419 125.316H677.382V120.316H667.419V125.316ZM687.346 125.316H697.31V120.316H687.346V125.316ZM707.274 125.316H712.255V120.316H707.274V125.316ZM712.255 125.316C713.826 125.316 715.365 125.316 716.873 125.317L716.875 120.317C715.366 120.316 713.826 120.316 712.255 120.316V125.316ZM726.067 125.337C729.286 125.352 732.344 125.379 735.253 125.426L735.333 120.426C732.399 120.379 729.322 120.352 726.09 120.337L726.067 125.337ZM744.414 125.667C747.654 125.793 750.674 125.966 753.499 126.199L753.911 121.216C750.998 120.975 747.903 120.799 744.61 120.67L744.414 125.667ZM762.45 127.264C765.614 127.782 768.469 128.435 771.074 129.252L772.571 124.481C769.697 123.58 766.607 122.878 763.258 122.33L762.45 127.264ZM779.007 132.679C780.249 133.398 781.434 134.188 782.573 135.057L785.606 131.082C784.298 130.083 782.936 129.176 781.51 128.351L779.007 132.679ZM782.573 135.057C783.414 135.698 784.232 136.368 785.028 137.063L788.319 133.3C787.441 132.531 786.536 131.791 785.606 131.082L782.573 135.057ZM789.509 141.544C790.204 142.339 790.873 143.158 791.515 143.999L795.49 140.966C794.781 140.036 794.041 139.131 793.272 138.252L789.509 141.544ZM791.515 143.999C792.384 145.138 793.174 146.323 793.892 147.565L798.221 145.061C797.396 143.636 796.489 142.274 795.49 140.966L791.515 143.999ZM797.32 155.497C798.137 158.103 798.789 160.958 799.308 164.122L804.242 163.313C803.693 159.965 802.992 156.875 802.09 154.001L797.32 155.497ZM800.373 173.073C800.606 175.898 800.778 178.918 800.905 182.158L805.901 181.962C805.773 178.668 805.597 175.574 805.356 172.661L800.373 173.073ZM801.146 191.319C801.193 194.228 801.22 197.286 801.235 200.505L806.235 200.482C806.219 197.25 806.193 194.173 806.145 191.239L801.146 191.319ZM801.255 209.699C801.255 211.207 801.255 212.745 801.255 214.316H806.255C806.255 212.746 806.255 211.206 806.255 209.697L801.255 209.699ZM801.255 214.316V218.524H806.255V214.316H801.255ZM801.255 226.94V235.356H806.255V226.94H801.255ZM801.255 243.772V252.187H806.255V243.772H801.255ZM801.255 260.603V264.811H806.255V260.603H801.255Z" fill="#635E5E"/>
</svg>
