<svg width="31" height="27" viewBox="0 0 31 27" fill="none" xmlns="http://www.w3.org/2000/svg">
<path fill-rule="evenodd" clip-rule="evenodd" d="M3.65265 10.4755V20.9511L2.77031 20.0718L1.88797 19.1924L0.943984 20.1363L0 21.0803L2.4982 23.5786L4.9964 26.0768L7.4946 23.5786L9.9928 21.0803L9.04881 20.1363L8.10483 19.1924L7.22249 20.0718L6.34015 20.9511V10.4755V0H4.9964H3.65265V10.4755ZM11.7151 1.34375V2.6875H21.1214H30.5276V1.34375V0H21.1214H11.7151V1.34375ZM11.7151 8.0625V9.40625H19.1058H26.4964V8.0625V6.71875H19.1058H11.7151V8.0625ZM11.7151 14.7812V16.125H17.0901H22.4651V14.7812V13.4375H17.0901H11.7151V14.7812ZM11.7151 21.5V22.8438H15.0745H18.4339V21.5V20.1562H15.0745H11.7151V21.5Z" fill="#353535"/>
</svg>
