<svg width="47" height="47" viewBox="0 0 47 47" fill="none" xmlns="http://www.w3.org/2000/svg">
<path fill-rule="evenodd" clip-rule="evenodd" d="M21.6321 0.0462469C16.3902 0.53697 11.8972 2.40855 8.09273 5.68629C3.78902 9.3941 1.10396 14.2928 0.1813 20.12C-0.0612777 21.652 -0.0602034 25.1668 0.183156 26.721C0.905324 31.3315 2.71929 35.3044 5.66948 38.7373C9.39771 43.0753 14.6123 45.875 20.4602 46.6782C21.6633 46.8434 25.1236 46.8427 26.3196 46.677C33.1312 45.7334 38.9311 42.1876 42.7164 36.6529C45.752 32.2142 47.2042 26.731 46.7381 21.4673C45.7289 10.0683 36.8557 1.13853 25.4895 0.082868C24.4959 -0.00941717 22.4352 -0.0289484 21.6321 0.0462469ZM24.0034 11.0567C24.1789 11.1328 25.813 12.696 27.7042 14.5967C31.3643 18.2755 31.3207 18.2187 31.1563 19.0944C31.0662 19.5751 30.482 20.1592 30.0013 20.2494C29.1687 20.4056 29.0591 20.3331 26.9314 18.217L24.9553 16.2519L24.9294 25.5908C24.9038 34.8504 24.9019 34.9319 24.7022 35.1993C24.3196 35.7118 24.0075 35.8716 23.3899 35.8716C22.7723 35.8716 22.4602 35.7118 22.0776 35.1993C21.8779 34.9319 21.876 34.8504 21.8503 25.5908L21.8245 16.2519L19.8484 18.217C17.7207 20.3331 17.6111 20.4056 16.7785 20.2494C16.2978 20.1592 15.7136 19.5751 15.6235 19.0944C15.4591 18.2186 15.4155 18.2755 19.0756 14.5968C20.9382 12.7249 22.594 11.1336 22.7551 11.0606C23.1365 10.8881 23.611 10.8866 24.0034 11.0567Z" fill="#C3C3C3"/>
</svg>
